<?xml version="1.0" standalone="no"?>
<!DOCTYPE svg PUBLIC "-//W3C//DTD SVG 20010904//EN"
 "http://www.w3.org/TR/2001/REC-SVG-20010904/DTD/svg10.dtd">
<svg version="1.0" xmlns="http://www.w3.org/2000/svg"
 width="1000.000000pt" height="1000.000000pt" viewBox="0 0 1000.000000 1000.000000"
 preserveAspectRatio="xMidYMid meet">
<metadata>
Created by potrace 1.14, written by Peter Selinger 2001-2017
</metadata>
<g transform="translate(0.000000,1000.000000) scale(0.100000,-0.100000)"
fill="#000000" stroke="none">
<path d="M5228 9035 c-2 -1 -41 -5 -88 -9 -131 -10 -285 -30 -395 -51 -16 -3
-55 -10 -85 -16 -258 -49 -727 -203 -900 -294 -14 -8 -70 -36 -125 -63 -128
-65 -185 -96 -185 -102 0 -3 26 -21 58 -39 126 -75 416 -279 473 -333 8 -7 30
-26 49 -42 149 -120 373 -346 498 -501 31 -38 62 -74 68 -80 6 -5 22 -26 34
-45 13 -19 27 -37 30 -40 25 -24 164 -229 245 -365 217 -360 403 -843 480
-1240 19 -101 36 -196 40 -235 6 -50 16 -116 21 -142 23 -125 23 -721 0 -858
-3 -14 -7 -50 -10 -80 -4 -30 -8 -66 -11 -80 -2 -14 -6 -41 -9 -60 -22 -147
-75 -372 -129 -545 -17 -55 -32 -104 -33 -110 -2 -11 -70 -189 -83 -220 -58
-135 -85 -191 -148 -315 -40 -80 -78 -152 -83 -160 -5 -8 -32 -53 -61 -100
-279 -461 -665 -876 -1110 -1192 -101 -72 -288 -192 -312 -201 -21 -8 3 -24
173 -110 214 -109 550 -243 710 -283 8 -2 58 -15 110 -29 224 -59 472 -99 755
-121 69 -5 483 -5 520 0 17 2 75 7 130 11 55 4 102 8 105 10 3 2 30 6 60 9 30
4 66 9 80 11 14 3 41 7 60 10 295 48 684 167 975 300 228 103 525 273 671 384
12 9 32 23 44 31 44 29 236 184 310 249 312 277 627 663 824 1011 62 109 202
399 246 510 44 110 126 352 134 393 2 13 11 44 20 70 16 47 81 359 90 432 3
22 8 65 11 95 4 30 8 66 10 79 24 151 24 704 0 841 -2 14 -6 50 -9 80 -3 30
-7 66 -10 80 -2 14 -10 59 -16 100 -66 417 -246 923 -459 1295 -28 48 -51 92
-51 96 0 5 -4 9 -10 9 -5 0 -10 5 -10 11 0 10 -106 173 -178 274 -142 198
-381 464 -566 630 -356 321 -782 585 -1231 763 -147 58 -415 143 -530 168 -11
2 -29 6 -40 8 -77 18 -269 55 -310 61 -27 4 -61 8 -75 10 -14 2 -52 6 -85 10
-33 3 -80 9 -105 11 -49 6 -576 14 -582 9z"/>
<path d="M2350 7030 c-258 -758 -788 -1372 -1495 -1732 -100 -50 -323 -142
-371 -152 l-31 -7 0 -138 1 -139 115 -42 c392 -145 739 -368 1047 -675 128
-128 200 -212 301 -350 40 -55 76 -105 80 -111 5 -5 15 -21 23 -35 8 -13 38
-64 68 -113 99 -163 192 -368 269 -591 l28 -79 50 3 c62 5 107 5 164 0 l44 -3
33 99 c93 277 219 525 396 780 134 192 339 419 498 550 25 21 47 40 50 44 9
11 192 146 255 188 185 122 460 256 655 320 l45 14 -1 137 -1 136 -29 9 c-16
5 -38 12 -49 17 -11 4 -63 25 -115 45 -112 45 -340 155 -360 175 -5 5 -33 22
-75 44 -144 79 -381 269 -558 449 -315 319 -547 693 -702 1131 l-42 120 -131
0 -130 1 -32 -95z"/>
</g>
</svg>
