<svg xmlns="http://www.w3.org/2000/svg" version="1.1" xmlns:xlink="http://www.w3.org/1999/xlink" xmlns:svgjs="http://svgjs.com/svgjs" width="1000px" height="1000px"><svg width="1000px" height="1000px" viewBox="0 0 1000 1000" version="1.1" xmlns="http://www.w3.org/2000/svg" xmlns:xlink="http://www.w3.org/1999/xlink">
    <title>darleigh-logo-1301-2236</title>
    <g id="SvgjsG1004" stroke="none" stroke-width="1" fill="none" fill-rule="evenodd">
        <rect id="SvgjsRect1003" fill="#FFFFFF" x="0" y="0" width="1000" height="1000" rx="120"></rect>
        <g id="SvgjsG1002" transform="translate(105.000000, 231.000000)">
            <path d="M520.229761,-2.27373675e-13 C668.693404,-2.27373675e-13 789.046966,120.353562 789.046966,268.817204 C789.046966,417.280847 668.693404,537.634409 520.229761,537.634409 C426.723622,537.634409 344.368182,489.892588 296.209451,417.454955 C315.492451,425.602344 336.689824,430.107527 358.939439,430.107527 C448.017624,430.107527 520.229761,357.89539 520.229761,268.817204 C520.229761,179.739019 448.017624,107.526882 358.939439,107.526882 C336.689824,107.526882 315.492451,112.032065 296.209783,120.179969 C344.368182,47.7418209 426.723622,-2.27373675e-13 520.229761,-2.27373675e-13 Z" id="SvgjsPath1001" fill="#202E7D" transform="translate(542.627560, 268.817204) rotate(-360.000000) translate(-542.627560, -268.817204) "></path>
            <path d="M0,269.580742 C146.279775,266.551444 185.183758,-26.7454892 293.398331,121.173157 C401.612903,269.091803 401.612903,269.091803 520.229761,269.63691 C374.873202,271.985908 271.273385,391.874989 266.601527,537.634409 C265.282373,455.723721 255.028845,317.775508 197.649116,268.817204 C151.471317,229.416761 65.4803885,270.638882 0,269.580742 Z" id="SvgjsPath1000" fill="#FFC423" transform="translate(260.114881, 308.574582) rotate(-360.000000) translate(-260.114881, -308.574582) "></path>
        </g>
    </g>
</svg><style>@media (prefers-color-scheme: light) { :root { filter: none; } }
</style></svg>